inDegrees=yes
name=ik_S55_A02_T01
DataType=double
version=3
OpenSimVersion=4.3-2021-08-27-4bc7ad9
endheader
time	pelvis_tilt	pelvis_list	pelvis_rotation	pelvis_tx	pelvis_ty	pelvis_tz	hip_flexion_r	hip_adduction_r	hip_rotation_r	knee_angle_r	knee_angle_r_beta	ankle_angle_r	subtalar_angle_r	mtp_angle_r	hip_flexion_l	hip_adduction_l	hip_rotation_l	knee_angle_l	knee_angle_l_beta	ankle_angle_l	subtalar_angle_l	mtp_angle_l	lumbar_extension	lumbar_bending	lumbar_rotation	arm_flex_r	arm_add_r	arm_rot_r	elbow_flex_r	pro_sup_r	wrist_flex_r	wrist_dev_r	arm_flex_l	arm_add_l	arm_rot_l	elbow_flex_l	pro_sup_l	wrist_flex_l	wrist_dev_l
28.93999999999947	-0.7693660962318647	4.994932903639327	75.94585382396473	0	0.9399999999999999	0	1.411230543371351	0.1833449555769602	-1.909187525150472	11.2300340591218	0.1960010694427789	0	0	0	6.714104751572319	-1.61692241350678	-5.472486526055763	14.9601652492964	0.2611041402426605	0	0	0	0	0	0	30.0832598590299	-30.08325985902992	4.285297848880703	75.89148570161996	85.71470239199243	0	0	30.0832598590299	-30.08325985902992	4.285297848880703	75.89148570161996	85.71470239185851	0	0
28.95999999999947	-0.1486075085260692	5.64829025179343	72.35210954234962	0	0.9399999999999999	0	0.5458467411736652	0.6183871714658591	1.465888366273267	10.96460487595082	0.1913684562655661	0	0	0	6.189759456916986	-2.459782253189536	-7.399083025842891	15.07626302337139	0.2631304286545056	0	0	0	0	0	0	30.09094687150711	-30.09094687150714	4.286029433900239	75.90089407110217	85.71397080701063	0	0	30.09094687150711	-30.09094687150714	4.286029433900239	75.90089407110217	85.71397080687684	0	0
28.97999999999947	0.04257365226240382	5.936425823898542	70.81425165094223	0	0.9399999999999999	0	0.5456023040589705	0.6518864657067578	1.680483021671105	11.24262083702955	0.1962207501594865	0	0	0	6.20868333054533	-2.751865631900912	-6.327846485890789	17.83035517446394	0.3111984045944038	0	0	0	0	0	0	30.13420769968489	-30.13420769968491	4.289561042885745	75.94610890744701	85.71043919820303	0	0	30.13420769968489	-30.13420769968491	4.289561042885745	75.94610890744701	85.71043919806989	0	0
28.99999999999947	0.1203220199911613	6.09338176311119	69.3119350616041	0	0.9399999999999999	0	0.894319774002879	0.5357154512755656	1.424550420506723	11.84729174110067	0.2067742483265384	0	0	0	6.21634749291804	-2.785082543429767	-6.867439512727007	20.04974306890751	0.3499340307313484	0	0	0	0	0	0	30.18761900624746	-30.18761900624748	4.293914719256335	76.00184547464971	85.70608552205167	0	0	30.18761900624746	-30.18761900624748	4.293914719256335	76.00184547464971	85.70608552191935	0	0
29.01999999999947	0.1205261878093714	6.109652146376587	69.31154108553298	0	0.9399999999999999	0	0.8853057644923639	0.5344774583256012	1.433438237667444	11.82659189252373	0.2064129678142064	0	0	0	6.36272791097227	-2.746034347684436	-5.306151164297065	20.9368390430851	0.3654167762619339	0	0	0	0	0	0	30.19431001757776	-30.19431001757778	4.294549379717931	76.01000546852649	85.70545086162282	0	0	30.19431001757776	-30.19431001757778	4.294549379717931	76.01000546852649	85.70545086149056	0	0
29.03999999999947	0.1618421732163107	6.146026808146692	68.54809392582798	0	0.9399999999999999	0	1.129641985724248	0.391143456478601	1.402951256160378	12.14677202828829	0.2120011653827804	0	0	0	6.443147755760949	-2.886086992179861	-4.20086975538983	21.74137807750921	0.3794586313734506	0	0	0	0	0	0	30.19769792038254	-30.19769792038257	4.294871036978662	76.01414119996123	85.70512920437868	0	0	30.19769792038254	-30.19769792038257	4.294871036978662	76.01414119996123	85.70512920424643	0	0
29.05999999999947	0.2519988848562275	6.331251478892868	66.14340883084755	0	0.9399999999999999	0	1.282276517533536	0.2335588830170491	3.162921529936514	12.5220274207363	0.2185506075168618	0	0	0	6.1764982209778	-2.684521321093542	-4.011228339539241	22.21445053904293	0.3877153034277283	0	0	0	0	0	0	30.24123816836865	-30.24123816836867	4.298418512209078	76.05955533060131	85.70158172932688	0	0	30.24123816836865	-30.24123816836867	4.298418512209078	76.05955533060131	85.70158172919531	0	0
29.07999999999947	0.2632405743409891	6.328025355583382	65.12283885270854	0	0.9399999999999999	0	1.617405771159982	0.09888919646224799	3.735287822699036	12.82000721253191	0.2237513359881022	0	0	0	6.394180060492788	-1.905204326029329	-2.073877130667974	22.78383235760665	0.3976528908626582	0	0	0	0	0	0	30.27514202902524	-30.27514202902526	4.301191868749414	76.09506329384197	85.69880837292624	0	0	30.27514202902524	-30.27514202902526	4.301191868749414	76.09506329384197	85.69880837279524	0	0
29.09999999999947	0.1826067340843069	5.927866090206597	62.63939191303488	0	0.9399999999999999	0	2.371748390667398	0.1302527555488434	5.777781826869654	13.12848420930231	0.2291352752484097	0	0	0	6.960228342967773	-1.116193120329785	-0.7782949062582132	23.24622300861305	0.4057231301531599	0	0	0	0	0	0	30.31870716318079	-30.31870716318082	4.304750302917717	76.14062034975903	85.69524993893714	0	0	30.31870716318079	-30.31870716318082	4.304750302917717	76.14062034975903	85.69524993880688	0	0
29.11999999999947	0.2653378129246688	5.976786830619087	61.19692074599837	0	0.9399999999999999	0	2.568441479649004	0.05145370099985509	6.686906690418136	13.3822210451135	0.2335638184669072	0	0	0	6.926410603712944	-0.262177933710828	1.707961860864539	23.49009692966319	0.4099795330352335	0	0	0	0	0	0	30.35029541696974	-30.35029541696976	4.30732733826606	76.17361159088794	85.69267290371855	0	0	30.35029541696974	-30.35029541696976	4.30732733826606	76.17361159088794	85.6926729035888	0	0
29.13999999999947	0.3391076006644705	6.007291258880848	60.33305191178506	0	0.9399999999999999	0	3.077090249873169	-0.4080910947480249	6.135196750011476	13.75026445624442	0.2399873877814129	0	0	0	6.713970165386528	0.496843102615268	5.391051129638203	23.25049982646817	0.4057977747062398	0	0	0	0	0	0	30.37546112213728	-30.37546112213731	4.309405370544641	76.20022369106005	85.6905948715448	0	0	30.37546112213728	-30.37546112213731	4.309405370544641	76.20022369106005	85.69059487141547	0	0
29.15999999999947	0.6080497100765858	6.121416370191355	58.42640680859452	0	0.9399999999999999	0	3.278049363504614	-0.4692447087473351	7.500606296430846	13.47904649327987	0.2352537413371294	0	0	0	6.261835991331283	0.9646689460811463	8.633468186266999	22.46554170657793	0.3920976710238906	0	0	0	0	0	0	30.40784177764509	-30.40784177764511	4.312085620530243	76.23454988551768	85.68791462169442	0	0	30.40784177764509	-30.40784177764511	4.312085620530243	76.23454988551768	85.68791462156564	0	0
29.17999999999947	1.026336197668134	6.24564453194536	56.06702664630007	0	0.9399999999999999	0	2.952389546103777	-0.08518202851496007	9.768650127007867	13.20185575719212	0.2304158503363716	0	0	0	5.694084880759019	1.249595370611127	11.27351249302357	21.48676890730902	0.3750148630476867	0	0	0	0	0	0	30.44383621234483	-30.44383621234485	4.3150605083274	76.27264738752564	85.68493973404736	0	0	30.44383621234483	-30.44383621234485	4.3150605083274	76.27264738752564	85.68493973391915	0	0
29.19999999999947	1.450896837531876	6.241089477844035	53.50264516649798	0	0.9399999999999999	0	3.244983011779776	0.05717530407901202	11.31191636670468	13.25590594116752	0.231359204008051	0	0	0	4.988797923176191	1.323664291798209	12.10992558151747	20.50405848187665	0.3578633305302176	0	0	0	0	0	0	30.47715080245984	-30.47715080245986	4.317750375035178	76.30707194224097	85.68224986747481	0	0	30.47715080245984	-30.47715080245986	4.317750375035178	76.30707194224097	85.68224986734715	0	0
29.21999999999947	1.813057739979139	6.103560180823845	50.79410748895796	0	0.9399999999999999	0	3.110286526538983	0.4972047749207648	13.86545341256216	12.73279294157603	0.2222291598051956	0	0	0	3.827209970153805	2.386578281917287	16.02604061868099	18.57401962729583	0.3241777978263622	0	0	0	0	0	0	30.50916863414929	-30.50916863414931	4.320373028097567	76.34064945014951	85.6796272145446	0	0	30.50916863414929	-30.50916863414931	4.320373028097567	76.34064945014951	85.67962721441747	0	0
29.23999999999947	2.131686126521325	5.767989950826936	48.00196166502057	0	0.9399999999999999	0	4.560423208328401	0.4361058523559748	14.13256333336896	13.66505934216992	0.2385002780012755	0	0	0	3.377133874270931	2.359513210372014	16.15282519159529	17.50999574293238	0.3056070777243606	0	0	0	0	0	0	30.54725127297194	-30.54725127297197	4.323452281334836	76.38005816026698	85.67654796146212	0	0	30.54725127297194	-30.54725127297197	4.323452281334836	76.38005816026698	85.67654796133559	0	0
29.25999999999947	2.420938880139563	5.269988250133647	45.28440389906606	0	0.9399999999999999	0	4.681392569329565	1.049246447484557	16.57475368739762	12.92657977064524	0.2256113780194528	0	0	0	3.700375096164123	1.766180551478887	13.98227817376948	17.44058734189164	0.304395672597655	0	0	0	0	0	0	30.55723170414263	-30.55723170414266	4.324381696459787	76.39199638050023	85.67561854638497	0	0	30.55723170414263	-30.55723170414266	4.324381696459787	76.39199638050023	85.67561854625865	0	0
29.27999999999946	2.559039508586982	5.023693815804926	44.05773632488328	0	0.9399999999999999	0	6.288800212263662	0.6101753216131571	14.55750837141296	13.77278675777896	0.2403804760983176	0	0	0	3.109462354324444	2.037816019634933	15.0192314486581	16.27621546477334	0.2840735496243139	0	0	0	0	0	0	30.58721070095896	-30.58721070095899	4.326831831756073	76.42336227474719	85.67316841121206	0	0	30.58721070095896	-30.58721070095899	4.326831831756073	76.42336227474719	85.67316841108619	0	0
